<svg width="1035" height="814" viewBox="0 0 1035 814" fill="none" xmlns="http://www.w3.org/2000/svg">
<g clip-path="url(#clip0)">
<path d="M104.189 548.249C138.548 651.656 126.481 748.749 126.481 748.749C126.481 748.749 58.7062 678.186 24.3467 574.779C-10.0129 471.371 2.05424 374.279 2.05424 374.279C2.05424 374.279 69.8291 444.842 104.189 548.249Z" fill="#258C60"/>
<path d="M27.533 485.675C30.8053 485.675 33.458 483.022 33.458 479.75C33.458 476.477 30.8053 473.825 27.533 473.825C24.2608 473.825 21.6081 476.477 21.6081 479.75C21.6081 483.022 24.2608 485.675 27.533 485.675Z" fill="#3F3D56"/>
<path d="M58.3427 541.369C61.615 541.369 64.2677 538.716 64.2677 535.444C64.2677 532.172 61.615 529.519 58.3427 529.519C55.0705 529.519 52.4178 532.172 52.4178 535.444C52.4178 538.716 55.0705 541.369 58.3427 541.369Z" fill="#3F3D56"/>
<path d="M61.8977 628.466C65.1699 628.466 67.8226 625.813 67.8226 622.541C67.8226 619.268 65.1699 616.616 61.8977 616.616C58.6254 616.616 55.9727 619.268 55.9727 622.541C55.9727 625.813 58.6254 628.466 61.8977 628.466Z" fill="#3F3D56"/>
<path d="M148.774 548.249C114.414 651.656 126.481 748.749 126.481 748.749C126.481 748.749 194.256 678.186 228.616 574.779C262.975 471.371 250.908 374.279 250.908 374.279C250.908 374.279 183.133 444.842 148.774 548.249Z" fill="#258C60"/>
<path d="M236.683 428.203C239.956 428.203 242.608 425.55 242.608 422.278C242.608 419.005 239.956 416.353 236.683 416.353C233.411 416.353 230.758 419.005 230.758 422.278C230.758 425.55 233.411 428.203 236.683 428.203Z" fill="#3F3D56"/>
<path d="M182.766 507.004C186.039 507.004 188.691 504.352 188.691 501.079C188.691 497.807 186.039 495.154 182.766 495.154C179.494 495.154 176.842 497.807 176.842 501.079C176.842 504.352 179.494 507.004 182.766 507.004Z" fill="#3F3D56"/>
<path d="M188.691 594.693C191.964 594.693 194.616 592.041 194.616 588.769C194.616 585.496 191.964 582.844 188.691 582.844C185.419 582.844 182.766 585.496 182.766 588.769C182.766 592.041 185.419 594.693 188.691 594.693Z" fill="#3F3D56"/>
<path d="M912.151 617.189C940.403 702.214 930.481 782.047 930.481 782.047C930.481 782.047 874.754 724.028 846.502 639.003C818.251 553.978 828.173 474.144 828.173 474.144C828.173 474.144 883.9 532.164 912.151 617.189Z" fill="#258C60"/>
<path d="M849.122 565.738C851.813 565.738 853.994 563.557 853.994 560.866C853.994 558.176 851.813 555.995 849.122 555.995C846.432 555.995 844.251 558.176 844.251 560.866C844.251 563.557 846.432 565.738 849.122 565.738Z" fill="#3F3D56"/>
<path d="M874.455 611.532C877.146 611.532 879.327 609.351 879.327 606.66C879.327 603.97 877.146 601.789 874.455 601.789C871.765 601.789 869.584 603.97 869.584 606.66C869.584 609.351 871.765 611.532 874.455 611.532Z" fill="#3F3D56"/>
<path d="M877.378 683.146C880.069 683.146 882.25 680.965 882.25 678.274C882.25 675.584 880.069 673.403 877.378 673.403C874.688 673.403 872.507 675.584 872.507 678.274C872.507 680.965 874.688 683.146 877.378 683.146Z" fill="#3F3D56"/>
<path d="M948.811 617.189C920.559 702.214 930.481 782.047 930.481 782.047C930.481 782.047 986.208 724.028 1014.46 639.003C1042.71 553.978 1032.79 474.144 1032.79 474.144C1032.79 474.144 977.062 532.164 948.811 617.189Z" fill="#258C60"/>
<path d="M1021.09 518.483C1023.78 518.483 1025.97 516.301 1025.97 513.611C1025.97 510.92 1023.78 508.739 1021.09 508.739C1018.4 508.739 1016.22 510.92 1016.22 513.611C1016.22 516.301 1018.4 518.483 1021.09 518.483Z" fill="#3F3D56"/>
<path d="M976.761 583.276C979.452 583.276 981.633 581.095 981.633 578.405C981.633 575.714 979.452 573.533 976.761 573.533C974.07 573.533 971.889 575.714 971.889 578.405C971.889 581.095 974.07 583.276 976.761 583.276Z" fill="#3F3D56"/>
<path d="M981.633 655.377C984.323 655.377 986.504 653.196 986.504 650.506C986.504 647.815 984.323 645.634 981.633 645.634C978.942 645.634 976.761 647.815 976.761 650.506C976.761 653.196 978.942 655.377 981.633 655.377Z" fill="#3F3D56"/>
<path d="M515.231 805C647.78 805 755.231 697.548 755.231 565C755.231 432.452 647.78 325 515.231 325C382.683 325 275.231 432.452 275.231 565C275.231 697.548 382.683 805 515.231 805Z" fill="url(#paint0_linear)"/>
<path d="M520.478 814C611.053 814 684.478 809.971 684.478 805C684.478 800.029 611.053 796 520.478 796C429.904 796 356.478 800.029 356.478 805C356.478 809.971 429.904 814 520.478 814Z" fill="#3F3D56"/>
<path d="M532.27 137.828C532.27 137.828 517.014 154.609 516.252 166.813C515.489 179.017 489.317 209.258 515.252 219.174C515.252 219.174 519.828 216.123 524.405 219.174C528.981 222.225 559.636 215.661 559.636 215.661L532.27 137.828Z" fill="#2F2E41"/>
<path d="M545.616 205.539C545.616 205.539 562.342 228.954 547.289 233.972C532.236 238.99 557.324 339.344 557.324 339.344L620.881 240.662C620.881 240.662 587.43 203.866 587.43 187.14L545.616 205.539Z" fill="#FFB9B9"/>
<path d="M696.147 324.291C696.147 324.291 717.89 346.034 711.2 351.052C704.51 356.069 637.607 387.848 637.607 389.521C637.607 391.193 627.572 399.556 627.572 399.556L615.864 381.158L661.023 352.724L696.147 324.291Z" fill="#FFB9B9"/>
<path d="M456.97 312.583C456.97 312.583 440.245 339.344 453.625 351.052C467.006 362.76 507.147 394.538 507.147 394.538C507.147 394.538 498.402 421.703 506.956 423.174C515.51 424.644 528.89 386.175 527.218 382.83C525.545 379.485 480.982 350.496 480.982 350.496L456.97 312.583Z" fill="#FFB9B9"/>
<path d="M441.59 721.343L429.239 767L453.239 768L463.333 731.378L441.59 721.343Z" fill="#FFB9B9"/>
<path d="M587.43 724.033V760.829H604.156L612.519 724.033H587.43Z" fill="#FFB9B9"/>
<path d="M557.324 215.574C577.646 215.574 594.12 199.1 594.12 178.778C594.12 158.455 577.646 141.981 557.324 141.981C537.002 141.981 520.528 158.455 520.528 178.778C520.528 199.1 537.002 215.574 557.324 215.574Z" fill="#FFB9B9"/>
<path d="M569.032 309.237L547.289 233.972C547.289 233.972 507.147 228.954 488.749 252.37C470.351 275.786 450.28 319.273 450.28 319.273C450.28 319.273 460.315 334.326 461.988 344.361C463.661 354.397 490.422 349.379 490.422 349.379C490.422 349.379 515.51 354.397 515.51 376.14C515.51 397.883 436.9 730.723 436.9 730.723C436.9 730.723 532.236 752.467 538.926 735.741C545.616 719.015 579.067 518.308 579.067 518.308L582.413 742.431C582.413 742.431 662.696 754.139 666.041 734.068C669.386 713.998 652.66 464.786 652.66 464.786C652.66 464.786 649.315 407.919 622.554 374.467C622.554 374.467 620.882 364.432 620.882 362.759C620.882 361.087 662.696 354.397 662.696 354.397C662.696 354.397 707.855 364.432 706.182 329.308C704.51 294.184 652.66 245.68 634.262 240.662C615.864 235.645 610.957 228.956 610.957 228.956L569.032 309.237Z" fill="#2F2E41"/>
<path d="M432.239 758C432.239 758 437.62 754.982 424.239 760C410.859 765.018 381.239 779 381.239 779C381.239 779 331.528 784.537 375.015 804.608C375.015 804.608 408.466 806.971 408.466 803.626C408.466 800.281 420.174 795.263 423.519 800.281C426.864 805.298 460.239 804 460.333 799.281C460.438 793.993 456.988 756.776 456.988 756.776C456.988 756.776 435.584 769.708 432.239 758Z" fill="#2F2E41"/>
<path d="M609.174 750.794C609.174 750.794 580.74 739.086 579.067 745.776C577.395 752.467 574.05 777.555 574.05 780.9C574.05 784.245 567.36 809.334 590.775 812.679C614.191 816.024 619.209 794.281 617.536 792.608C615.864 790.936 609.174 750.794 609.174 750.794Z" fill="#2F2E41"/>
<path d="M560.913 123.717C560.913 123.717 587.44 96.9786 620.239 158C620.239 158 653.361 210.198 609.883 225.453C609.883 225.453 572.239 218 571.21 199.612C571.21 199.612 584.94 198.087 574.261 186.645C563.582 175.204 553.666 169.864 553.666 169.864C553.666 169.864 545.276 164.525 545.276 159.186C545.276 159.186 545.276 168.339 546.802 168.339C546.802 168.339 532.309 166.813 531.546 160.711C530.783 154.609 527.732 144.693 527.732 144.693C527.732 144.693 532.309 119.522 560.913 123.717Z" fill="#2F2E41"/>
<path d="M162.612 549.367C164.915 658.309 124.725 747.513 124.725 747.513C124.725 747.513 80.8 660.087 78.4969 551.146C76.1938 442.204 116.384 353 116.384 353C116.384 353 160.309 440.426 162.612 549.367Z" fill="#3F3D56"/>
<path d="M124.702 754.074C178.367 754.074 221.871 751.687 221.871 748.742C221.871 745.797 178.367 743.409 124.702 743.409C71.0371 743.409 27.5331 745.797 27.5331 748.742C27.5331 751.687 71.0371 754.074 124.702 754.074Z" fill="#3F3D56"/>
<path d="M120.555 463.752C126.445 463.752 131.219 458.977 131.219 453.087C131.219 447.197 126.445 442.423 120.555 442.423C114.665 442.423 109.89 447.197 109.89 453.087C109.89 458.977 114.665 463.752 120.555 463.752Z" fill="#258C60"/>
<path d="M99.8173 544.331C103.09 544.331 105.742 541.679 105.742 538.407C105.742 535.134 103.09 532.482 99.8173 532.482C96.545 532.482 93.8924 535.134 93.8924 538.407C93.8924 541.679 96.545 544.331 99.8173 544.331Z" fill="#258C60"/>
<path d="M131.219 600.618C134.492 600.618 137.144 597.966 137.144 594.693C137.144 591.421 134.492 588.769 131.219 588.769C127.947 588.769 125.295 591.421 125.295 594.693C125.295 597.966 127.947 600.618 131.219 600.618Z" fill="#258C60"/>
<path d="M960.189 618.109C962.083 707.684 929.037 781.031 929.037 781.031C929.037 781.031 892.921 709.147 891.027 619.571C889.133 529.995 922.179 456.648 922.179 456.648C922.179 456.648 958.296 528.533 960.189 618.109Z" fill="#3F3D56"/>
<path d="M929.018 786.426C973.144 786.426 1008.91 784.463 1008.91 782.042C1008.91 779.62 973.144 777.657 929.018 777.657C884.893 777.657 849.122 779.62 849.122 782.042C849.122 784.463 884.893 786.426 929.018 786.426Z" fill="#3F3D56"/>
<path d="M925.608 547.713C930.451 547.713 934.377 543.787 934.377 538.944C934.377 534.101 930.451 530.175 925.608 530.175C920.765 530.175 916.839 534.101 916.839 538.944C916.839 543.787 920.765 547.713 925.608 547.713Z" fill="#258C60"/>
<path d="M908.557 613.968C911.248 613.968 913.429 611.787 913.429 609.096C913.429 606.406 911.248 604.225 908.557 604.225C905.867 604.225 903.686 606.406 903.686 609.096C903.686 611.787 905.867 613.968 908.557 613.968Z" fill="#258C60"/>
<path d="M934.377 660.249C937.068 660.249 939.249 658.068 939.249 655.377C939.249 652.687 937.068 650.506 934.377 650.506C931.687 650.506 929.505 652.687 929.505 655.377C929.505 658.068 931.687 660.249 934.377 660.249Z" fill="#258C60"/>
</g>
<defs>
<linearGradient id="paint0_linear" x1="710.5" y1="450.5" x2="355.5" y2="737.5" gradientUnits="userSpaceOnUse">
<stop stop-color="#4DB5E2"/>
<stop offset="1" stop-color="#42A77B"/>
</linearGradient>
<clipPath id="clip0">
<rect width="1034.48" height="814" fill="white"/>
</clipPath>
</defs>
</svg>
